<?xml version="1.0"?><svg width="650" height="150" xmlns="http://www.w3.org/2000/svg">
 <title>Serving Spoon</title>

 <metadata id="metadata7">image/svg+xmlSutrannuen</metadata>
 <g>
  <title>Layer 1</title>
  <g id="layer1">
   <g transform="rotate(89.9249, 323.559, 71.9414)" id="g3652" stroke="#000000">
    <path id="path2847-5" d="m343.258301,-28.483341c-6.884674,4.178711 -10.074982,12.05661 -10.074982,21.626358l9.175049,364.56728c0,18.039124 -9.400024,27.058807 -18.800018,27.058807c-9.29071,0 -18.799927,-9.019684 -18.799927,-27.058807c3.206726,-121.52243 6.421661,-243.044556 9.624939,-364.56728c0,-10.197975 -3.273895,-17.947327 -9.910126,-21.259056c-23.918243,-13.992531 -35.460052,-55.18993 -35.460052,-103.834187c0,-60.163513 24.420715,-108.935684 54.545166,-108.935684c30.124451,0 54.545197,48.772171 54.545197,108.935684c0,48.225586 -11.344025,89.131981 -34.845245,103.466885z" stroke-dashoffset="0" stroke-miterlimit="4" stroke-linejoin="round" stroke-linecap="round" stroke-width="3" stroke="#000000" fill="#000000"/>
   </g>
  </g>
 </g>
</svg>